<svg width="252" height="35" viewBox="0 0 252 35" fill="none" xmlns="http://www.w3.org/2000/svg">
<rect width="252" height="35" rx="17.5" fill="white"/>
<circle opacity="0.04" cx="234" cy="17.5264" r="14" fill="#171717"/>
<g opacity="0.7">
<path d="M22.4303 21.5833C25.0077 21.5833 27.097 19.494 27.097 16.9167C27.097 14.3393 25.0077 12.25 22.4303 12.25C19.853 12.25 17.7637 14.3393 17.7637 16.9167C17.7637 19.494 19.853 21.5833 22.4303 21.5833Z" stroke="#171717" stroke-linecap="round" stroke-linejoin="round"/>
<path d="M28.2633 22.7494L25.7258 20.2119" stroke="#171717" stroke-linecap="round" stroke-linejoin="round"/>
<path d="M41.9057 15.94C41.7737 14.704 40.9697 14.188 39.7817 14.188C38.8097 14.188 37.8617 14.536 37.8617 15.652C37.8617 17.776 43.3457 16.264 43.3457 19.648C43.3457 21.484 41.5577 22.192 39.9977 22.192C38.0777 22.192 36.4577 21.256 36.4577 19.18H37.5377C37.5377 20.62 38.7377 21.244 40.0337 21.244C41.0657 21.244 42.2057 20.92 42.2057 19.684C42.2057 17.32 36.7217 18.892 36.7217 15.736C36.7217 14.008 38.2577 13.228 39.8297 13.228C41.5817 13.228 42.9257 14.056 42.9857 15.94H41.9057ZM48.8709 18.304C48.8109 17.332 48.1029 16.552 47.0829 16.552C46.0269 16.552 45.3669 17.344 45.3069 18.304H48.8709ZM49.8549 20.032C49.5789 21.424 48.6069 22.132 47.2029 22.132C45.2229 22.132 44.2869 20.776 44.2269 18.88C44.2269 17.008 45.4509 15.652 47.1429 15.652C49.3389 15.652 50.0109 17.704 49.9509 19.204H45.3069C45.2709 20.284 45.8829 21.244 47.2389 21.244C48.1029 21.244 48.6669 20.848 48.8469 20.032H49.8549ZM56.5042 21.976C56.3242 22.084 56.0842 22.132 55.7722 22.132C55.2442 22.132 54.9082 21.856 54.9082 21.184C54.3442 21.856 53.5882 22.132 52.7242 22.132C51.6082 22.132 50.6722 21.664 50.6722 20.404C50.6722 19 51.7162 18.688 52.7722 18.496C53.8882 18.268 54.8602 18.364 54.8602 17.584C54.8602 16.684 54.1162 16.552 53.4802 16.552C52.6162 16.552 51.9802 16.816 51.9322 17.728H50.9122C50.9722 16.192 52.1482 15.652 53.5402 15.652C54.6562 15.652 55.8682 15.904 55.8682 17.356V20.548C55.8682 21.028 55.8682 21.244 56.1922 21.244C56.2762 21.244 56.3842 21.22 56.5042 21.184V21.976ZM54.8482 18.796C54.0562 19.396 51.7522 18.796 51.7522 20.332C51.7522 21.004 52.3282 21.244 52.9522 21.244C54.2962 21.244 54.8482 20.416 54.8482 19.84V18.796ZM57.4175 15.796H58.3775V17.104H58.4015C58.8935 16.096 59.5775 15.616 60.6815 15.652V16.732C59.0375 16.732 58.4375 17.656 58.4375 19.24V22H57.4175V15.796ZM65.4507 17.788C65.2947 17.008 64.7787 16.552 63.9147 16.552C62.4387 16.552 61.9827 17.728 61.9827 18.976C61.9827 20.128 62.4987 21.244 63.7947 21.244C64.8027 21.244 65.3667 20.692 65.4987 19.732H66.5427C66.3147 21.268 65.3907 22.132 63.8067 22.132C61.9107 22.132 60.9027 20.848 60.9027 18.976C60.9027 17.116 61.8627 15.652 63.8307 15.652C65.2347 15.652 66.3507 16.312 66.5067 17.788H65.4507ZM67.684 13.432H68.704V16.708H68.728C69.04 15.952 69.952 15.652 70.684 15.652C72.316 15.652 72.82 16.588 72.82 17.92V22H71.8V17.8C71.8 17.032 71.32 16.552 70.54 16.552C69.304 16.552 68.704 17.38 68.704 18.496V22H67.684V13.432Z" fill="#171717"/>
</g>
<path d="M237.241 17.7463L233.237 14.098C233.106 13.9673 232.893 13.9673 232.762 14.098C232.63 14.2287 232.63 14.4408 232.762 14.5715L236.524 18L232.762 21.4285C232.631 21.5592 232.631 21.7713 232.762 21.902C232.893 22.0327 233.106 22.0327 233.238 21.902L237.241 18.2537C237.311 18.1841 237.341 18.0917 237.336 18.0003C237.341 17.9086 237.311 17.8163 237.241 17.7463Z" fill="#171717"/>
<rect x="0.35" y="0.35" width="251.3" height="34.3" rx="17.15" stroke="#171717" stroke-opacity="0.5" stroke-width="0.7"/>
</svg>
