<svg width="257" height="35" viewBox="0 0 257 35" fill="none" xmlns="http://www.w3.org/2000/svg">
<rect x="0.2" y="0.2" width="256.6" height="34.6" rx="17.3" fill="white" fill-opacity="0.16"/>
<rect x="0.2" y="0.2" width="256.6" height="34.6" rx="17.3" stroke="white" stroke-width="0.4"/>
<circle opacity="0.2" cx="239" cy="17.5264" r="14" fill="white"/>
<path d="M242.241 17.7463L238.237 14.098C238.106 13.9673 237.893 13.9673 237.762 14.098C237.63 14.2287 237.63 14.4408 237.762 14.5715L241.524 18L237.762 21.4285C237.631 21.5592 237.631 21.7713 237.762 21.902C237.893 22.0327 238.106 22.0327 238.238 21.902L242.241 18.2537C242.311 18.1841 242.341 18.0917 242.336 18.0003C242.341 17.9086 242.311 17.8163 242.241 17.7463Z" fill="white"/>
</svg>
